{"title":"Orlando[x264][AC3]Nordic_Sub.mkv","uid":5249903,"size":918663172,"categoryP":"video","categoryS":"movies","magnet":"?xt=urn:btih:fe4ca86ac60086d190398025b31471eff49c8fb2&amp;dn=Orlando%5Bx264%5D%5BAC3%5DNordic_Sub.mkv&amp;tr=udp%3A%2F%2Ftracker.openbittorrent.com%3A80&amp;tr=udp%3A%2F%2Fopen.demonii.com%3A1337&amp;tr=udp%3A%2F%2Ftracker.coppersurfer.tk%3A6969&amp;tr=udp%3A%2F%2Fexodus.desync.com%3A6969","seeders":1,"leechers":0,"uploader":"Zen_Bud","files":-1,"time":1262289596,"description":"General\nComplete name                    : Orlando.mkv\nFormat                           : Matroska\nFile size                        : 876 MiB\nDuration                         : 1h 29mn\nOverall bit rate                 : 1 365 Kbps\n\n\nVideo\nID                               : 1\nFormat                           : AVC\nDuration                         : 1h 29mn\nBit rate                         : 1 210 Kbps\nWidth                            : 720 pixels\nHeight                           : 416 pixels\nDisplay aspect ratio             : 16:9\nFrame rate                       : 25.000 fps\nResolution                       : 8 bits\nColorimetry                      : 4:2:0\nScan type                        : Progressive\nBits/(Pixel*Frame)               : 0.162\nStream size                      : 777 MiB (89%)\nWriting library                  : x264 core 79\n    \n\nAudio\nID                               : 2\nFormat                           : AC-3\nFormat/Info                      : Audio Coding 3\nCodec ID                         : A_AC3\nDuration                         : 1h 29mn\nBit rate mode                    : Constant\nBit rate                         : 128 Kbps\nChannel(s)                       : 2 channels\nChannel positions                : L R\nSampling rate                    : 48.0 KHz\nStream size                      : 82.2 MiB (9%)\n\nText #1\nLanguage                         : Swedish\n\nText #2\nLanguage                         : Norwegian\n\nText #3\nLanguage                         : Danish\n\nText #4\nLanguage                         : Finnish\n\n\n\n","torrent":{"xt":"urn:btih:fe4ca86ac60086d190398025b31471eff49c8fb2","amp;dn":"Orlando%5Bx264%5D%5BAC3%5DNordic_Sub.mkv","amp;tr":["udp%3A%2F%2Ftracker.openbittorrent.com%3A80","udp%3A%2F%2Fopen.demonii.com%3A1337","udp%3A%2F%2Ftracker.coppersurfer.tk%3A6969","udp%3A%2F%2Fexodus.desync.com%3A6969"],"infoHash":"fe4ca86ac60086d190398025b31471eff49c8fb2","infoHashBuffer":{"type":"Buffer","data":[254,76,168,106,198,0,134,209,144,57,128,37,179,20,113,239,244,156,143,178]},"announce":[],"urlList":[]}}